# Blender 3.6.0
# www.blender.org
mtllib LargePad.mtl
o landing_pad.001
v -45.474537 -6.680074 -45.474533
v -16.644836 -6.680074 -62.119370
v -62.119370 -6.680074 -16.644835
v -62.119370 -6.680074 16.644836
v -45.474533 -6.680074 45.474537
v -16.644836 -6.680074 62.119370
v 16.644835 -6.680074 62.119370
v 45.474537 -6.680074 45.474533
v 62.119370 -6.680074 16.644836
v 62.119370 -6.680074 -16.644835
v 45.474533 -6.680074 -45.474537
v 16.644835 -6.680074 -62.119370
v -10.570059 4.583107 -10.771678
v -3.741048 4.583107 -14.714412
v -14.512790 4.583107 -3.942668
v -14.512790 4.583107 3.942795
v -10.570057 4.583107 10.771807
v -3.741048 4.583107 14.714537
v 2.526611 4.583107 14.714537
v 2.526581 4.583107 -14.714410
v -24.722900 0.000000 -24.722898
v -6.201789 4.583107 -29.935762
v -33.772114 0.000000 -9.049210
v -33.772114 0.000000 9.049210
v -24.722897 0.000000 24.722900
v -6.201777 4.583107 29.935888
v 22.116230 4.583107 21.914608
v 8.222962 4.583107 29.935888
v 30.137510 4.583107 8.021343
v 30.137510 4.583107 -8.021216
v 22.116230 4.583107 -21.914480
v 8.222962 4.583107 -29.935762
v -5.230174 0.000000 19.518841
v -5.230174 0.000000 -19.519356
v -19.519144 0.000000 -5.230383
v -14.289019 0.000000 -14.289227
v -14.289016 0.000000 14.288714
v -19.519144 0.000000 5.229869
v 14.288925 0.000000 14.334381
v 3.043177 4.583107 -16.642529
v 3.043127 4.583107 16.642176
v 19.527409 0.000000 5.261061
v 19.527409 0.000000 -5.215907
v 14.288923 0.000000 -14.289228
v -5.477018 4.583107 27.231119
v -20.146803 0.000000 -20.146736
v -20.146799 0.000000 20.146898
v -27.521051 0.000000 7.374328
v 20.146833 0.000000 20.162395
v 7.374261 0.000000 -27.520985
v 27.523916 0.000000 7.384912
v 20.146832 0.000000 -20.146738
v -5.477011 4.583107 -27.230839
v -27.521051 0.000000 -7.374167
v 7.497453 4.583107 27.231117
v 27.435324 4.583107 -7.291799
v 9.049209 0.000000 33.772114
v -9.049212 0.000000 33.772114
v 24.722904 0.000000 24.722898
v 33.772114 0.000000 9.049210
v 33.772114 0.000000 -9.049210
v 24.722900 0.000000 -24.722900
v 9.049209 0.000000 -33.772114
v -9.049212 0.000000 -33.772114
v -7.374233 0.000000 27.521145
v 5.230079 0.000000 19.518841
v 5.230079 0.000000 -19.519356
v -11.981402 4.583107 12.182871
v -4.257664 4.583107 16.642176
v -16.440710 4.583107 4.459128
v -16.440710 4.583107 -4.459480
v -11.981406 4.583107 -12.183221
v -4.257664 4.583107 -16.642529
v -7.374233 0.000000 -27.520985
v 20.136156 4.583107 -19.934320
v 7.498216 4.583107 -27.230839
v 27.523916 0.000000 -7.369255
v 27.435324 4.583107 7.306530
v 20.135777 4.583107 19.949711
v 7.374261 0.000000 27.521145
v -10.322724 0.000000 -10.322723
v -3.778379 0.000000 -14.101103
v -14.101103 0.000000 -3.778379
v -14.101103 0.000000 3.778379
v -10.322723 0.000000 10.322724
v -3.778379 0.000000 14.101103
v 3.778379 0.000000 14.101103
v 10.322725 0.000000 10.410975
v 14.117254 0.000000 3.838657
v 14.117254 0.000000 -3.750404
v 10.322723 0.000000 -10.322724
v 3.778379 0.000000 -14.101103
vn -0.1569 0.9592 -0.2352
vn -0.0574 0.9751 -0.2144
vn -0.1569 0.9751 -0.1569
vn -0.0919 0.9915 -0.0919
vn -0.1748 0.7532 0.6342
vn 0.1252 0.8813 -0.4556
vn -0.5037 0.8301 -0.2392
vn -0.3710 0.6441 0.6689
vn -0.3710 0.6441 -0.6689
vn -0.5037 0.8301 0.2392
vn 0.1252 0.8813 0.4557
vn -0.1745 0.7530 -0.6344
vn 0.3395 0.8766 0.3411
vn 0.1569 0.9751 0.1569
vn 0.2144 0.9751 0.0574
vn 0.4673 0.8751 0.1257
vn -0.0919 0.9915 0.0919
vn -0.1569 0.9751 0.1569
vn -0.0574 0.9751 0.2144
vn -0.1569 0.9592 0.2352
vn 0.1219 0.8790 -0.4610
vn 0.0574 0.9751 -0.2144
vn -0.2144 0.9751 -0.0574
vn -0.1255 0.9915 -0.0336
vn 0.2144 0.9751 -0.0574
vn 0.4673 0.8751 -0.1257
vn 0.0574 0.9751 0.2144
vn 0.1219 0.8790 0.4610
vn -0.2144 0.9751 0.0574
vn -0.1255 0.9915 0.0336
vn 0.1569 0.9751 -0.1569
vn 0.3395 0.8766 -0.3411
vn -0.0000 1.0000 -0.0000
vn 0.3396 0.8783 0.3364
vn -0.4621 0.7596 -0.4578
vn 0.4650 0.8766 0.1237
vn -0.6247 0.7630 -0.1661
vn 0.4650 0.8766 -0.1237
vn -0.6246 0.7630 0.1661
vn 0.3396 0.8784 -0.3364
vn -0.4624 0.7595 0.4576
vn 0.4201 0.8022 -0.4243
vn -0.3687 0.8517 0.3723
vn -0.1338 0.8478 0.5131
vn 0.1487 0.8078 -0.5704
vn 0.5806 0.7990 -0.1567
vn -0.5024 0.8539 0.1356
vn 0.5806 0.7990 0.1567
vn -0.5024 0.8539 -0.1356
vn 0.4201 0.8022 0.4243
vn -0.3687 0.8517 -0.3723
vn 0.1487 0.8078 0.5704
vn -0.1338 0.8478 -0.5131
vn 0.5366 0.7901 0.2964
vn 0.4073 0.6875 -0.6012
vn 0.4074 0.6875 0.6012
vn 0.5366 0.7901 -0.2964
vn 0.5129 0.6924 0.5075
vn 0.1899 0.6993 0.6891
vn 0.7010 0.6884 0.1864
vn 0.7010 0.6884 -0.1864
vn 0.5129 0.6924 -0.5075
vn 0.1899 0.6993 -0.6891
vn 0.2546 0.9183 -0.3033
vn 0.2546 0.9183 0.3033
vn -0.2847 0.9132 -0.2915
vn 0.1483 0.9806 0.1279
vn 0.1483 0.9806 -0.1279
vn -0.2856 0.9155 0.2835
vn -0.1076 0.9130 0.3934
vn -0.3858 0.9168 0.1028
vn -0.3858 0.9168 -0.1028
vn -0.2856 0.9155 -0.2835
vn -0.1076 0.9130 -0.3934
vn -0.2847 0.9132 0.2915
vn -0.1952 0.6328 0.7493
vn -0.5404 0.6403 0.5459
vn -0.7381 0.6446 0.1992
vn -0.7381 0.6446 -0.1993
vn -0.5402 0.6402 -0.5462
vn -0.1949 0.6329 -0.7493
vt 0.059526 0.607885
vt -0.090213 0.639827
vt -0.094235 0.309039
vt 0.062061 0.351861
vt 0.239153 0.725777
vt 0.217861 0.751336
vt 0.136631 0.636816
vt 0.161170 0.631679
vt 0.789687 0.296709
vt 0.806893 0.281378
vt 0.854331 0.408639
vt 0.824382 0.412154
vt 0.901653 0.613575
vt 1.028202 0.658864
vt 0.868595 0.893918
vt 0.780047 0.798603
vt 0.626559 0.061741
vt 0.677924 -0.086449
vt 0.932234 0.095966
vt 0.828223 0.205034
vt 0.165560 0.803177
vt 0.072419 0.896371
vt 0.076195 0.032059
vt 0.184607 0.151225
vt 0.620921 1.027563
vt 0.586085 0.899563
vt 1.057059 0.367473
vt 0.924374 0.394930
vt 0.362920 -0.112266
vt 0.393454 0.043254
vt 0.335354 1.033056
vt 0.367072 0.905476
vt 0.152349 0.570924
vt 0.142256 0.373911
vt 0.241572 0.212217
vt 0.410386 0.125283
vt 0.597907 0.139312
vt 0.745317 0.256152
vt 0.832899 0.591466
vt 0.803162 0.580917
vt 0.729758 0.744288
vt 0.708429 0.721387
vt 0.569361 0.830116
vt 0.560925 0.799835
vt 0.386342 0.835433
vt 0.393133 0.804351
vt 0.446917 0.619350
vt 0.425256 0.669801
vt 0.324702 0.615808
vt 0.384051 0.583055
vt 0.519509 0.619350
vt 0.528990 0.671510
vt 0.582375 0.583055
vt 0.619758 0.621170
vt 0.618671 0.520188
vt 0.675917 0.532420
vt 0.618671 0.447596
vt 0.688174 0.418951
vt 0.538866 0.317813
vt 0.545167 0.298323
vt 0.617154 0.347079
vt 0.604528 0.359024
vt 0.452753 0.314845
vt 0.448458 0.293248
vt 0.371204 0.353414
vt 0.356485 0.336757
vt 0.324782 0.429117
vt 0.304466 0.422369
vt 0.319915 0.509474
vt 0.301741 0.513359
vt 0.641593 0.393589
vt 0.629155 0.395994
vt 0.338285 0.552001
vt 0.328864 0.561773
vt 0.403042 0.753973
vt 0.271546 0.681370
vt 0.548679 0.754800
vt 0.675462 0.683042
vt 0.755520 0.561102
vt 0.770210 0.413416
vt 0.562975 0.236397
vt 0.663627 0.309156
vt 0.432554 0.227924
vt 0.313126 0.288569
vt 0.241391 0.401062
vt 0.243330 0.531291
vt 0.347755 0.447596
vt 0.347755 0.520188
vt 0.383203 0.384730
vt 0.446338 0.348279
vt 0.519240 0.348279
vt 0.582375 0.384730
vt 0.347716 0.519966
vt 0.347716 0.447374
vt 0.384012 0.384508
vt 0.446878 0.348212
vt 0.519470 0.348212
vt 0.582337 0.384508
vt 0.618633 0.447374
vt 0.619367 0.519542
vt 0.582916 0.582677
vt 0.519781 0.619128
vt 0.446878 0.619128
vt 0.384012 0.582832
s 1
usemtl main
f 64/1/1 2/2/2 1/3/3 21/4/4
f 76/5/5 32/6/6 22/7/7 53/8/8
f 45/9/9 26/10/10 28/11/11 55/12/12
f 59/13/13 8/14/14 9/15/15 60/16/16
f 25/17/17 5/18/18 6/19/19 58/20/20
f 63/21/21 12/22/22 2/2/2 64/1/1
f 21/4/4 1/3/3 3/23/23 23/24/24
f 60/16/16 9/15/15 10/25/25 61/26/26
f 58/20/20 6/19/19 7/27/27 57/28/28
f 23/24/24 3/23/23 4/29/29 24/30/30
f 61/26/26 10/25/25 11/31/31 62/32/32
f 57/28/28 7/27/27 8/14/14 59/13/13
f 24/30/30 4/29/29 5/18/18 25/17/17
f 62/32/32 11/31/31 12/22/22 63/21/21
s 0
f 74/33/33 64/1/33 21/4/33 46/34/33
f 46/34/33 21/4/33 23/24/33 54/35/33
f 54/35/33 23/24/33 24/30/33 48/36/33
f 48/36/33 24/30/33 25/17/33 47/37/33
f 47/37/33 25/17/33 58/20/33 65/38/33
s 1
f 55/12/12 28/11/11 27/39/34 79/40/35
f 79/40/35 27/39/34 29/41/36 78/42/37
f 78/42/37 29/41/36 30/43/38 56/44/39
f 56/44/39 30/43/38 31/45/40 75/46/41
f 75/46/41 31/45/40 32/6/6 76/5/5
s 0
f 91/47/33 44/48/33 67/49/33 92/50/33
f 90/51/33 43/52/33 44/48/33 91/47/33
f 89/53/33 42/54/33 43/52/33 90/51/33
f 88/55/33 39/56/33 42/54/33 89/53/33
f 87/57/33 66/58/33 39/56/33 88/55/33
s 1
f 17/59/42 68/60/43 69/61/44 18/62/45
f 16/63/46 70/64/47 68/60/43 17/59/42
f 15/65/48 71/66/49 70/64/47 16/63/46
f 13/67/50 72/68/51 71/66/49 15/65/48
f 14/69/52 73/70/53 72/68/51 13/67/50
f 18/62/45 69/61/44 41/71/54 19/72/55
f 20/73/56 40/74/57 73/70/53 14/69/52
s 0
f 44/48/33 52/75/33 50/76/33 67/49/33
f 43/52/33 77/77/33 52/75/33 44/48/33
f 42/54/33 51/78/33 77/77/33 43/52/33
f 39/56/33 49/79/33 51/78/33 42/54/33
f 66/58/33 80/80/33 49/79/33 39/56/33
f 37/81/33 47/37/33 65/38/33 33/82/33
f 38/83/33 48/36/33 47/37/33 37/81/33
f 35/84/33 54/35/33 48/36/33 38/83/33
f 36/85/33 46/34/33 54/35/33 35/84/33
f 34/86/33 74/33/33 46/34/33 36/85/33
f 33/82/33 65/38/33 80/80/33 66/58/33
f 67/49/33 50/76/33 74/33/33 34/86/33
s 1
f 14/69/52 13/67/50 81/87/58 82/88/59
f 13/67/50 15/65/48 83/89/60 81/87/58
f 15/65/48 16/63/46 84/90/61 83/89/60
f 16/63/46 17/59/42 85/91/62 84/90/61
f 17/59/42 18/62/45 86/92/63 85/91/62
f 18/62/45 19/72/55 87/57/64 86/92/63
f 20/73/56 14/69/52 82/88/59 92/50/65
f 28/11/11 26/10/10 58/20/20 57/28/28
f 27/39/34 28/11/11 57/28/28 59/13/13
f 29/41/36 27/39/34 59/13/13 60/16/16
f 30/43/38 29/41/36 60/16/16 61/26/26
f 31/45/40 30/43/38 61/26/26 62/32/32
f 32/6/6 31/45/40 62/32/32 63/21/21
f 22/7/7 32/6/6 63/21/21 64/1/1
f 26/10/10 45/9/9 65/38/66 58/20/20
f 19/72/55 41/71/54 66/58/67 87/57/64
f 40/74/57 20/73/56 92/50/65 67/49/68
f 69/61/44 68/60/43 37/81/69 33/82/70
f 68/60/43 70/64/47 38/83/71 37/81/69
f 70/64/47 71/66/49 35/84/72 38/83/71
f 71/66/49 72/68/51 36/85/73 35/84/72
f 72/68/51 73/70/53 34/86/74 36/85/73
f 41/71/54 69/61/44 33/82/70 66/58/67
f 73/70/53 40/74/57 67/49/68 34/86/74
f 53/8/8 22/7/7 64/1/1 74/33/75
f 75/46/41 76/5/5 50/76/76 52/75/77
f 56/44/39 75/46/41 52/75/77 77/77/78
f 78/42/37 56/44/39 77/77/78 51/78/79
f 79/40/35 78/42/37 51/78/79 49/79/80
f 55/12/12 79/40/35 49/79/80 80/80/81
f 45/9/9 55/12/12 80/80/81 65/38/66
f 76/5/5 53/8/8 74/33/75 50/76/76
s 0
usemtl helipad
f 82/93/33 81/94/33 83/95/33 84/96/33 85/97/33 86/98/33 87/99/33 88/100/33 89/101/33 90/102/33 91/103/33 92/104/33
